<svg width="194" height="29" viewBox="0 0 194 29" fill="none" xmlns="http://www.w3.org/2000/svg">
<path d="M0.0400002 28V0.559998H20.28V5.44H6V12.24H18.76V17.08H6V28H0.0400002ZM37.7228 28.48C34.8161 28.48 32.3095 27.96 30.2028 26.92C28.0961 25.88 26.4828 24.3067 25.3628 22.2C24.2428 20.0933 23.6828 17.4533 23.6828 14.28C23.6828 11.0533 24.2428 8.4 25.3628 6.32C26.4828 4.21333 28.0961 2.65333 30.2028 1.64C32.3095 0.599999 34.8161 0.0799994 37.7228 0.0799994C40.6828 0.0799994 43.2028 0.599999 45.2828 1.64C47.3895 2.65333 49.0028 4.21333 50.1228 6.32C51.2428 8.4 51.8028 11.0533 51.8028 14.28C51.8028 17.4533 51.2428 20.0933 50.1228 22.2C49.0028 24.3067 47.3895 25.88 45.2828 26.92C43.2028 27.96 40.6828 28.48 37.7228 28.48ZM37.7228 23.6C39.0295 23.6 40.1761 23.4133 41.1628 23.04C42.1495 22.6667 42.9761 22.1067 43.6428 21.36C44.3095 20.6133 44.8161 19.7067 45.1628 18.64C45.5095 17.5467 45.6828 16.3067 45.6828 14.92V13.68C45.6828 12.2667 45.5095 11.0133 45.1628 9.92C44.8161 8.82667 44.3095 7.92 43.6428 7.2C42.9761 6.45333 42.1495 5.89333 41.1628 5.52C40.1761 5.14667 39.0295 4.96 37.7228 4.96C36.4428 4.96 35.3095 5.14667 34.3228 5.52C33.3361 5.89333 32.5095 6.45333 31.8428 7.2C31.1761 7.92 30.6695 8.82667 30.3228 9.92C30.0028 11.0133 29.8428 12.2667 29.8428 13.68V14.92C29.8428 16.3067 30.0028 17.5467 30.3228 18.64C30.6695 19.7067 31.1761 20.6133 31.8428 21.36C32.5095 22.1067 33.3361 22.6667 34.3228 23.04C35.3095 23.4133 36.4428 23.6 37.7228 23.6ZM56.6416 28V0.559998H76.8816V5.44H62.6016V12.24H75.3616V17.08H62.6016V28H56.6416ZM93.4044 28.48C90.8977 28.48 88.7377 28.08 86.9244 27.28C85.1377 26.48 83.7644 25.28 82.8044 23.68C81.8444 22.0533 81.3644 20.04 81.3644 17.64V0.559998H87.3644V17.48C87.3644 19.4533 87.8844 20.9733 88.9244 22.04C89.9644 23.08 91.4577 23.6 93.4044 23.6C95.351 23.6 96.8444 23.08 97.8844 22.04C98.951 20.9733 99.4844 19.4533 99.4844 17.48V0.559998H105.484V17.64C105.484 20.04 105.004 22.0533 104.044 23.68C103.084 25.28 101.698 26.48 99.8844 27.28C98.0977 28.08 95.9377 28.48 93.4044 28.48ZM108.766 28L118.646 13.56L109.726 0.559998H117.006L122.686 9.24H122.886L128.526 0.559998H135.366L126.406 13.56L136.286 28H129.006L122.406 17.84H122.206L115.646 28H108.766ZM151.785 28.48C148.879 28.48 146.372 27.96 144.265 26.92C142.159 25.88 140.545 24.3067 139.425 22.2C138.305 20.0933 137.745 17.4533 137.745 14.28C137.745 11.0533 138.305 8.4 139.425 6.32C140.545 4.21333 142.159 2.65333 144.265 1.64C146.372 0.599999 148.879 0.0799994 151.785 0.0799994C154.745 0.0799994 157.265 0.599999 159.345 1.64C161.452 2.65333 163.065 4.21333 164.185 6.32C165.305 8.4 165.865 11.0533 165.865 14.28C165.865 17.4533 165.305 20.0933 164.185 22.2C163.065 24.3067 161.452 25.88 159.345 26.92C157.265 27.96 154.745 28.48 151.785 28.48ZM151.785 23.6C153.092 23.6 154.239 23.4133 155.225 23.04C156.212 22.6667 157.039 22.1067 157.705 21.36C158.372 20.6133 158.879 19.7067 159.225 18.64C159.572 17.5467 159.745 16.3067 159.745 14.92V13.68C159.745 12.2667 159.572 11.0133 159.225 9.92C158.879 8.82667 158.372 7.92 157.705 7.2C157.039 6.45333 156.212 5.89333 155.225 5.52C154.239 5.14667 153.092 4.96 151.785 4.96C150.505 4.96 149.372 5.14667 148.385 5.52C147.399 5.89333 146.572 6.45333 145.905 7.2C145.239 7.92 144.732 8.82667 144.385 9.92C144.065 11.0133 143.905 12.2667 143.905 13.68V14.92C143.905 16.3067 144.065 17.5467 144.385 18.64C144.732 19.7067 145.239 20.6133 145.905 21.36C146.572 22.1067 147.399 22.6667 148.385 23.04C149.372 23.4133 150.505 23.6 151.785 23.6ZM181.384 28.48C179.784 28.48 178.264 28.32 176.824 28C175.384 27.68 174.104 27.1733 172.984 26.48C171.891 25.76 171.024 24.8667 170.384 23.8C169.771 22.7067 169.464 21.3867 169.464 19.84C169.464 19.7067 169.464 19.5733 169.464 19.44C169.464 19.28 169.477 19.16 169.504 19.08H175.424C175.397 19.16 175.384 19.2667 175.384 19.4C175.384 19.5333 175.384 19.6533 175.384 19.76C175.384 20.6133 175.611 21.3333 176.064 21.92C176.544 22.5067 177.237 22.9467 178.144 23.24C179.051 23.5333 180.104 23.68 181.304 23.68C182.077 23.68 182.757 23.64 183.344 23.56C183.957 23.4533 184.491 23.32 184.944 23.16C185.424 22.9733 185.811 22.76 186.104 22.52C186.424 22.28 186.651 22 186.784 21.68C186.944 21.36 187.024 21 187.024 20.6C187.024 19.88 186.784 19.2933 186.304 18.84C185.851 18.3867 185.211 18 184.384 17.68C183.584 17.36 182.677 17.0667 181.664 16.8C180.651 16.5333 179.611 16.2667 178.544 16C177.477 15.7067 176.437 15.36 175.424 14.96C174.411 14.5333 173.504 14.0267 172.704 13.44C171.904 12.8533 171.264 12.1067 170.784 11.2C170.304 10.2933 170.064 9.2 170.064 7.92C170.064 6.56 170.344 5.38667 170.904 4.4C171.491 3.41333 172.304 2.6 173.344 1.96C174.384 1.32 175.584 0.853332 176.944 0.559998C178.304 0.239999 179.784 0.0799994 181.384 0.0799994C182.877 0.0799994 184.291 0.239999 185.624 0.559998C186.957 0.853332 188.131 1.33333 189.144 2C190.157 2.66667 190.944 3.50667 191.504 4.52C192.091 5.53333 192.384 6.73333 192.384 8.12V8.6H186.584V8.28C186.584 7.56 186.371 6.94667 185.944 6.44C185.517 5.93333 184.917 5.53333 184.144 5.24C183.371 4.94667 182.464 4.8 181.424 4.8C180.304 4.8 179.344 4.90667 178.544 5.12C177.771 5.33333 177.171 5.65333 176.744 6.08C176.344 6.48 176.144 6.96 176.144 7.52C176.144 8.16 176.371 8.69333 176.824 9.12C177.304 9.52 177.944 9.88 178.744 10.2C179.571 10.4933 180.491 10.76 181.504 11C182.517 11.24 183.557 11.5067 184.624 11.8C185.691 12.0933 186.731 12.44 187.744 12.84C188.757 13.24 189.664 13.7467 190.464 14.36C191.264 14.9467 191.904 15.68 192.384 16.56C192.864 17.44 193.104 18.4933 193.104 19.72C193.104 21.8267 192.597 23.52 191.584 24.8C190.571 26.08 189.184 27.0133 187.424 27.6C185.664 28.1867 183.651 28.48 181.384 28.48Z" fill="black"/>
</svg>
