<svg width="466" height="558" viewBox="0 0 466 558" fill="none" xmlns="http://www.w3.org/2000/svg">
<rect x="0.5" y="0.5" width="465" height="557" rx="14.5" fill="#1E1E1E" stroke="black"/>
<path d="M144.953 50.36C142.813 50.36 140.983 49.99 139.463 49.25C137.943 48.49 136.783 47.32 135.983 45.74C135.203 44.16 134.813 42.15 134.813 39.71C134.813 36.11 135.693 33.44 137.453 31.7C139.233 29.94 141.733 29.06 144.953 29.06C146.713 29.06 148.293 29.36 149.693 29.96C151.093 30.56 152.193 31.46 152.993 32.66C153.813 33.86 154.223 35.37 154.223 37.19H149.723C149.723 36.23 149.523 35.42 149.123 34.76C148.743 34.1 148.193 33.6 147.473 33.26C146.773 32.9 145.953 32.72 145.013 32.72C143.733 32.72 142.673 32.97 141.833 33.47C141.013 33.97 140.403 34.71 140.003 35.69C139.623 36.65 139.433 37.83 139.433 39.23V40.16C139.433 41.6 139.633 42.81 140.033 43.79C140.433 44.75 141.033 45.48 141.833 45.98C142.653 46.46 143.703 46.7 144.983 46.7C145.983 46.7 146.853 46.53 147.593 46.19C148.333 45.85 148.903 45.35 149.303 44.69C149.703 44.03 149.903 43.22 149.903 42.26H154.223C154.223 44.08 153.823 45.59 153.023 46.79C152.243 47.99 151.153 48.89 149.753 49.49C148.353 50.07 146.753 50.36 144.953 50.36ZM164.645 50.36C162.925 50.36 161.465 50.07 160.265 49.49C159.065 48.89 158.155 47.98 157.535 46.76C156.915 45.52 156.605 43.97 156.605 42.11C156.605 40.21 156.915 38.66 157.535 37.46C158.155 36.24 159.065 35.34 160.265 34.76C161.465 34.16 162.925 33.86 164.645 33.86C166.405 33.86 167.875 34.16 169.055 34.76C170.255 35.34 171.165 36.24 171.785 37.46C172.405 38.66 172.715 40.21 172.715 42.11C172.715 43.97 172.405 45.52 171.785 46.76C171.165 47.98 170.255 48.89 169.055 49.49C167.875 50.07 166.405 50.36 164.645 50.36ZM164.645 47.12C165.565 47.12 166.295 46.95 166.835 46.61C167.395 46.27 167.805 45.75 168.065 45.05C168.325 44.35 168.455 43.49 168.455 42.47V41.75C168.455 40.73 168.325 39.87 168.065 39.17C167.805 38.47 167.395 37.95 166.835 37.61C166.295 37.25 165.565 37.07 164.645 37.07C163.745 37.07 163.015 37.25 162.455 37.61C161.915 37.95 161.515 38.47 161.255 39.17C160.995 39.87 160.865 40.73 160.865 41.75V42.47C160.865 43.49 160.995 44.35 161.255 45.05C161.515 45.75 161.915 46.27 162.455 46.61C163.015 46.95 163.745 47.12 164.645 47.12ZM181.363 50.36C180.063 50.36 178.933 50.07 177.973 49.49C177.033 48.89 176.303 47.98 175.783 46.76C175.263 45.54 175.003 43.98 175.003 42.08C175.003 40.18 175.263 38.63 175.783 37.43C176.323 36.21 177.053 35.31 177.973 34.73C178.913 34.15 179.993 33.86 181.213 33.86C181.893 33.86 182.523 33.94 183.103 34.1C183.703 34.24 184.223 34.47 184.663 34.79C185.123 35.11 185.513 35.5 185.833 35.96H186.013V28.31H190.183V50H186.763L186.433 47.87H186.223C185.703 48.71 185.023 49.34 184.183 49.76C183.343 50.16 182.403 50.36 181.363 50.36ZM182.683 46.94C183.463 46.94 184.093 46.76 184.573 46.4C185.073 46.04 185.443 45.52 185.683 44.84C185.923 44.16 186.043 43.35 186.043 42.41V41.87C186.043 41.17 185.973 40.53 185.833 39.95C185.713 39.37 185.513 38.89 185.233 38.51C184.953 38.11 184.603 37.81 184.183 37.61C183.763 37.39 183.263 37.28 182.683 37.28C181.843 37.28 181.173 37.45 180.673 37.79C180.173 38.11 179.813 38.61 179.593 39.29C179.373 39.95 179.263 40.78 179.263 41.78V42.47C179.263 43.47 179.373 44.3 179.593 44.96C179.813 45.62 180.173 46.12 180.673 46.46C181.173 46.78 181.843 46.94 182.683 46.94ZM194.035 31.91V28.31H198.205V31.91H194.035ZM194.035 50V34.22H198.205V50H194.035ZM204.613 55.64C203.913 55.64 203.253 55.49 202.633 55.19C202.013 54.91 201.513 54.49 201.133 53.93C200.753 53.37 200.563 52.7 200.563 51.92C200.563 51.04 200.813 50.34 201.313 49.82C201.833 49.28 202.413 48.88 203.053 48.62C202.593 48.36 202.213 48.02 201.913 47.6C201.633 47.18 201.493 46.69 201.493 46.13C201.493 45.35 201.773 44.72 202.333 44.24C202.913 43.74 203.573 43.42 204.313 43.28C203.573 42.82 202.993 42.24 202.573 41.54C202.173 40.82 201.973 40.02 201.973 39.14C201.973 38 202.253 37.04 202.813 36.26C203.393 35.48 204.213 34.89 205.273 34.49C206.353 34.07 207.623 33.86 209.083 33.86C209.663 33.86 210.203 33.89 210.703 33.95C211.223 34.01 211.693 34.11 212.113 34.25C212.853 33.81 213.353 33.33 213.613 32.81C213.893 32.27 214.043 31.84 214.063 31.52H217.933C217.933 32.26 217.793 32.9 217.513 33.44C217.253 33.98 216.873 34.43 216.373 34.79C215.873 35.13 215.273 35.38 214.573 35.54C215.093 35.98 215.493 36.51 215.773 37.13C216.053 37.75 216.193 38.42 216.193 39.14C216.193 40.26 215.923 41.22 215.383 42.02C214.843 42.8 214.073 43.4 213.073 43.82C212.093 44.24 210.913 44.45 209.533 44.45H207.133C206.653 44.45 206.293 44.54 206.053 44.72C205.813 44.88 205.693 45.12 205.693 45.44C205.693 45.7 205.793 45.93 205.993 46.13C206.213 46.31 206.563 46.4 207.043 46.4H213.613C214.933 46.4 215.983 46.81 216.763 47.63C217.563 48.43 217.963 49.46 217.963 50.72C217.963 51.68 217.713 52.53 217.213 53.27C216.713 54.01 216.023 54.59 215.143 55.01C214.263 55.43 213.253 55.64 212.113 55.64H204.613ZM206.353 52.85H211.903C212.263 52.85 212.583 52.78 212.863 52.64C213.143 52.52 213.363 52.34 213.523 52.1C213.683 51.88 213.763 51.62 213.763 51.32C213.763 50.8 213.603 50.41 213.283 50.15C212.963 49.89 212.563 49.76 212.083 49.76H206.353C205.873 49.76 205.473 49.9 205.153 50.18C204.853 50.46 204.703 50.83 204.703 51.29C204.703 51.75 204.853 52.12 205.153 52.4C205.473 52.7 205.873 52.85 206.353 52.85ZM209.083 41.75C210.063 41.75 210.803 41.53 211.303 41.09C211.823 40.63 212.083 39.98 212.083 39.14C212.083 38.3 211.823 37.66 211.303 37.22C210.803 36.76 210.063 36.53 209.083 36.53C208.123 36.53 207.383 36.76 206.863 37.22C206.363 37.66 206.113 38.3 206.113 39.14C206.113 39.68 206.223 40.15 206.443 40.55C206.663 40.95 206.993 41.25 207.433 41.45C207.873 41.65 208.423 41.75 209.083 41.75ZM227.516 50.36C225.796 50.36 224.336 50.07 223.136 49.49C221.936 48.89 221.026 47.98 220.406 46.76C219.786 45.52 219.476 43.97 219.476 42.11C219.476 40.21 219.786 38.66 220.406 37.46C221.026 36.24 221.936 35.34 223.136 34.76C224.336 34.16 225.796 33.86 227.516 33.86C229.276 33.86 230.746 34.16 231.926 34.76C233.126 35.34 234.036 36.24 234.656 37.46C235.276 38.66 235.586 40.21 235.586 42.11C235.586 43.97 235.276 45.52 234.656 46.76C234.036 47.98 233.126 48.89 231.926 49.49C230.746 50.07 229.276 50.36 227.516 50.36ZM227.516 47.12C228.436 47.12 229.166 46.95 229.706 46.61C230.266 46.27 230.676 45.75 230.936 45.05C231.196 44.35 231.326 43.49 231.326 42.47V41.75C231.326 40.73 231.196 39.87 230.936 39.17C230.676 38.47 230.266 37.95 229.706 37.61C229.166 37.25 228.436 37.07 227.516 37.07C226.616 37.07 225.886 37.25 225.326 37.61C224.786 37.95 224.386 38.47 224.126 39.17C223.866 39.87 223.736 40.73 223.736 41.75V42.47C223.736 43.49 223.866 44.35 224.126 45.05C224.386 45.75 224.786 46.27 225.326 46.61C225.886 46.95 226.616 47.12 227.516 47.12ZM244.903 50V29.42H260.083V33.08H249.373V38.18H258.943V41.81H249.373V50H244.903ZM269.498 50.36C267.778 50.36 266.318 50.07 265.118 49.49C263.918 48.89 263.008 47.98 262.388 46.76C261.768 45.52 261.458 43.97 261.458 42.11C261.458 40.21 261.768 38.66 262.388 37.46C263.008 36.24 263.918 35.34 265.118 34.76C266.318 34.16 267.778 33.86 269.498 33.86C271.258 33.86 272.728 34.16 273.908 34.76C275.108 35.34 276.018 36.24 276.638 37.46C277.258 38.66 277.568 40.21 277.568 42.11C277.568 43.97 277.258 45.52 276.638 46.76C276.018 47.98 275.108 48.89 273.908 49.49C272.728 50.07 271.258 50.36 269.498 50.36ZM269.498 47.12C270.418 47.12 271.148 46.95 271.688 46.61C272.248 46.27 272.658 45.75 272.918 45.05C273.178 44.35 273.308 43.49 273.308 42.47V41.75C273.308 40.73 273.178 39.87 272.918 39.17C272.658 38.47 272.248 37.95 271.688 37.61C271.148 37.25 270.418 37.07 269.498 37.07C268.598 37.07 267.868 37.25 267.308 37.61C266.768 37.95 266.368 38.47 266.108 39.17C265.848 39.87 265.718 40.73 265.718 41.75V42.47C265.718 43.49 265.848 44.35 266.108 45.05C266.368 45.75 266.768 46.27 267.308 46.61C267.868 46.95 268.598 47.12 269.498 47.12ZM280.637 50V34.22H284.087L284.417 36.38H284.627C284.987 35.86 285.417 35.41 285.917 35.03C286.437 34.65 287.017 34.36 287.657 34.16C288.297 33.96 288.997 33.86 289.757 33.86C290.797 33.86 291.707 34.05 292.487 34.43C293.267 34.81 293.867 35.41 294.287 36.23C294.727 37.05 294.947 38.12 294.947 39.44V50H290.777V40.1C290.777 39.6 290.717 39.18 290.597 38.84C290.477 38.48 290.297 38.19 290.057 37.97C289.837 37.73 289.557 37.56 289.217 37.46C288.877 37.36 288.497 37.31 288.077 37.31C287.457 37.31 286.897 37.46 286.397 37.76C285.897 38.06 285.507 38.47 285.227 38.99C284.947 39.51 284.807 40.11 284.807 40.79V50H280.637ZM303.394 50.36C302.394 50.36 301.584 50.18 300.964 49.82C300.344 49.46 299.894 48.98 299.614 48.38C299.334 47.76 299.194 47.08 299.194 46.34V37.43H297.244V34.22H299.344L300.124 29.72H303.364V34.22H306.244V37.43H303.364V45.65C303.364 46.13 303.474 46.5 303.694 46.76C303.914 47 304.274 47.12 304.774 47.12H306.244V49.88C306.004 49.96 305.724 50.03 305.404 50.09C305.084 50.17 304.744 50.23 304.384 50.27C304.024 50.33 303.694 50.36 303.394 50.36ZM316.108 50.36C314.368 50.36 312.908 50.07 311.728 49.49C310.548 48.89 309.658 47.98 309.058 46.76C308.458 45.54 308.158 43.99 308.158 42.11C308.158 40.21 308.458 38.66 309.058 37.46C309.658 36.24 310.538 35.34 311.698 34.76C312.878 34.16 314.318 33.86 316.018 33.86C317.618 33.86 318.968 34.15 320.068 34.73C321.168 35.29 321.998 36.17 322.558 37.37C323.118 38.55 323.398 40.08 323.398 41.96V43.04H312.388C312.428 43.96 312.568 44.74 312.808 45.38C313.068 46.02 313.458 46.5 313.978 46.82C314.518 47.12 315.228 47.27 316.108 47.27C316.588 47.27 317.018 47.21 317.398 47.09C317.798 46.97 318.138 46.79 318.418 46.55C318.698 46.31 318.918 46.01 319.078 45.65C319.238 45.29 319.318 44.88 319.318 44.42H323.398C323.398 45.42 323.218 46.29 322.858 47.03C322.498 47.77 321.998 48.39 321.358 48.89C320.718 49.37 319.948 49.74 319.048 50C318.168 50.24 317.188 50.36 316.108 50.36ZM312.448 40.4H319.108C319.108 39.8 319.028 39.28 318.868 38.84C318.728 38.4 318.528 38.04 318.268 37.76C318.008 37.48 317.688 37.28 317.308 37.16C316.948 37.02 316.538 36.95 316.078 36.95C315.318 36.95 314.678 37.08 314.158 37.34C313.658 37.58 313.268 37.96 312.988 38.48C312.728 38.98 312.548 39.62 312.448 40.4Z" fill="white"/>
<path d="M67.8845 138.36C65.7445 138.36 63.9145 137.99 62.3945 137.25C60.8745 136.49 59.7145 135.32 58.9145 133.74C58.1345 132.16 57.7445 130.15 57.7445 127.71C57.7445 124.11 58.6245 121.44 60.3845 119.7C62.1645 117.94 64.6645 117.06 67.8845 117.06C69.6445 117.06 71.2245 117.36 72.6245 117.96C74.0245 118.56 75.1245 119.46 75.9245 120.66C76.7445 121.86 77.1545 123.37 77.1545 125.19H72.6545C72.6545 124.23 72.4545 123.42 72.0545 122.76C71.6745 122.1 71.1245 121.6 70.4045 121.26C69.7045 120.9 68.8845 120.72 67.9445 120.72C66.6645 120.72 65.6045 120.97 64.7645 121.47C63.9445 121.97 63.3345 122.71 62.9345 123.69C62.5545 124.65 62.3645 125.83 62.3645 127.23V128.16C62.3645 129.6 62.5645 130.81 62.9645 131.79C63.3645 132.75 63.9645 133.48 64.7645 133.98C65.5845 134.46 66.6345 134.7 67.9145 134.7C68.9145 134.7 69.7845 134.53 70.5245 134.19C71.2645 133.85 71.8345 133.35 72.2345 132.69C72.6345 132.03 72.8345 131.22 72.8345 130.26H77.1545C77.1545 132.08 76.7545 133.59 75.9545 134.79C75.1745 135.99 74.0845 136.89 72.6845 137.49C71.2845 138.07 69.6845 138.36 67.8845 138.36ZM80.3165 138V116.31H84.4865V138H80.3165ZM92.4845 138.36C91.9645 138.36 91.4045 138.3 90.8045 138.18C90.2245 138.06 89.6745 137.85 89.1545 137.55C88.6345 137.23 88.2045 136.78 87.8645 136.2C87.5445 135.6 87.3845 134.84 87.3845 133.92C87.3845 132.82 87.6245 131.91 88.1045 131.19C88.5845 130.47 89.2645 129.91 90.1445 129.51C91.0445 129.09 92.1145 128.8 93.3545 128.64C94.5945 128.48 95.9645 128.4 97.4645 128.4V127.23C97.4645 126.77 97.3845 126.37 97.2245 126.03C97.0845 125.69 96.8245 125.42 96.4445 125.22C96.0845 125.02 95.5745 124.92 94.9145 124.92C94.2545 124.92 93.7145 125 93.2945 125.16C92.8945 125.32 92.6045 125.53 92.4245 125.79C92.2645 126.03 92.1845 126.3 92.1845 126.6V126.96H88.1345C88.1145 126.86 88.1045 126.77 88.1045 126.69C88.1045 126.59 88.1045 126.47 88.1045 126.33C88.1045 125.41 88.3845 124.62 88.9445 123.96C89.5045 123.28 90.2945 122.76 91.3145 122.4C92.3345 122.04 93.5245 121.86 94.8845 121.86C96.3445 121.86 97.5645 122.05 98.5445 122.43C99.5445 122.81 100.305 123.37 100.825 124.11C101.365 124.85 101.635 125.78 101.635 126.9V134.07C101.635 134.43 101.735 134.7 101.935 134.88C102.155 135.04 102.395 135.12 102.655 135.12H103.645V137.85C103.445 137.95 103.135 138.05 102.715 138.15C102.295 138.27 101.785 138.33 101.185 138.33C100.605 138.33 100.085 138.24 99.6245 138.06C99.1845 137.9 98.8145 137.67 98.5145 137.37C98.2145 137.05 98.0045 136.67 97.8845 136.23H97.6745C97.3345 136.65 96.9145 137.02 96.4145 137.34C95.9345 137.66 95.3645 137.91 94.7045 138.09C94.0645 138.27 93.3245 138.36 92.4845 138.36ZM93.8945 135.21C94.4545 135.21 94.9545 135.13 95.3945 134.97C95.8345 134.79 96.2045 134.56 96.5045 134.28C96.8045 133.98 97.0345 133.62 97.1945 133.2C97.3745 132.78 97.4645 132.33 97.4645 131.85V130.98C96.3445 130.98 95.3445 131.06 94.4645 131.22C93.5845 131.36 92.8845 131.61 92.3645 131.97C91.8645 132.33 91.6145 132.83 91.6145 133.47C91.6145 133.83 91.7045 134.14 91.8845 134.4C92.0645 134.66 92.3245 134.86 92.6645 135C93.0045 135.14 93.4145 135.21 93.8945 135.21ZM112.107 138.36C111.007 138.36 110.017 138.24 109.137 138C108.257 137.76 107.507 137.43 106.887 137.01C106.267 136.57 105.787 136.05 105.447 135.45C105.127 134.85 104.967 134.17 104.967 133.41C104.967 133.33 104.967 133.25 104.967 133.17C104.967 133.09 104.977 133.03 104.997 132.99H109.017C109.017 133.03 109.017 133.07 109.017 133.11C109.017 133.15 109.017 133.19 109.017 133.23C109.037 133.73 109.197 134.14 109.497 134.46C109.797 134.76 110.187 134.98 110.667 135.12C111.167 135.26 111.687 135.33 112.227 135.33C112.707 135.33 113.167 135.29 113.607 135.21C114.067 135.11 114.447 134.94 114.747 134.7C115.067 134.46 115.227 134.15 115.227 133.77C115.227 133.29 115.027 132.92 114.627 132.66C114.247 132.4 113.737 132.19 113.097 132.03C112.477 131.87 111.797 131.69 111.057 131.49C110.377 131.33 109.697 131.15 109.017 130.95C108.337 130.73 107.717 130.45 107.157 130.11C106.617 129.77 106.177 129.33 105.837 128.79C105.497 128.23 105.327 127.53 105.327 126.69C105.327 125.87 105.507 125.16 105.867 124.56C106.227 123.94 106.717 123.43 107.337 123.03C107.977 122.63 108.717 122.34 109.557 122.16C110.417 121.96 111.337 121.86 112.317 121.86C113.237 121.86 114.097 121.96 114.897 122.16C115.697 122.34 116.397 122.62 116.997 123C117.597 123.36 118.067 123.82 118.407 124.38C118.747 124.92 118.917 125.53 118.917 126.21C118.917 126.35 118.917 126.48 118.917 126.6C118.917 126.72 118.907 126.8 118.887 126.84H114.897V126.6C114.897 126.24 114.787 125.94 114.567 125.7C114.347 125.44 114.027 125.24 113.607 125.1C113.207 124.96 112.717 124.89 112.137 124.89C111.737 124.89 111.367 124.92 111.027 124.98C110.707 125.04 110.427 125.13 110.187 125.25C109.947 125.37 109.757 125.52 109.617 125.7C109.497 125.86 109.437 126.06 109.437 126.3C109.437 126.64 109.577 126.92 109.857 127.14C110.157 127.34 110.547 127.51 111.027 127.65C111.507 127.79 112.037 127.94 112.617 128.1C113.337 128.3 114.087 128.5 114.867 128.7C115.667 128.88 116.407 129.13 117.087 129.45C117.767 129.77 118.317 130.23 118.737 130.83C119.157 131.41 119.367 132.2 119.367 133.2C119.367 134.16 119.177 134.97 118.797 135.63C118.437 136.29 117.927 136.82 117.267 137.22C116.607 137.62 115.837 137.91 114.957 138.09C114.077 138.27 113.127 138.36 112.107 138.36ZM128.777 138.36C127.677 138.36 126.687 138.24 125.807 138C124.927 137.76 124.177 137.43 123.557 137.01C122.937 136.57 122.457 136.05 122.117 135.45C121.797 134.85 121.637 134.17 121.637 133.41C121.637 133.33 121.637 133.25 121.637 133.17C121.637 133.09 121.647 133.03 121.667 132.99H125.687C125.687 133.03 125.687 133.07 125.687 133.11C125.687 133.15 125.687 133.19 125.687 133.23C125.707 133.73 125.867 134.14 126.167 134.46C126.467 134.76 126.857 134.98 127.337 135.12C127.837 135.26 128.357 135.33 128.897 135.33C129.377 135.33 129.837 135.29 130.277 135.21C130.737 135.11 131.117 134.94 131.417 134.7C131.737 134.46 131.897 134.15 131.897 133.77C131.897 133.29 131.697 132.92 131.297 132.66C130.917 132.4 130.407 132.19 129.767 132.03C129.147 131.87 128.467 131.69 127.727 131.49C127.047 131.33 126.367 131.15 125.687 130.95C125.007 130.73 124.387 130.45 123.827 130.11C123.287 129.77 122.847 129.33 122.507 128.79C122.167 128.23 121.997 127.53 121.997 126.69C121.997 125.87 122.177 125.16 122.537 124.56C122.897 123.94 123.387 123.43 124.007 123.03C124.647 122.63 125.387 122.34 126.227 122.16C127.087 121.96 128.007 121.86 128.987 121.86C129.907 121.86 130.767 121.96 131.567 122.16C132.367 122.34 133.067 122.62 133.667 123C134.267 123.36 134.737 123.82 135.077 124.38C135.417 124.92 135.587 125.53 135.587 126.21C135.587 126.35 135.587 126.48 135.587 126.6C135.587 126.72 135.577 126.8 135.557 126.84H131.567V126.6C131.567 126.24 131.457 125.94 131.237 125.7C131.017 125.44 130.697 125.24 130.277 125.1C129.877 124.96 129.387 124.89 128.807 124.89C128.407 124.89 128.037 124.92 127.697 124.98C127.377 125.04 127.097 125.13 126.857 125.25C126.617 125.37 126.427 125.52 126.287 125.7C126.167 125.86 126.107 126.06 126.107 126.3C126.107 126.64 126.247 126.92 126.527 127.14C126.827 127.34 127.217 127.51 127.697 127.65C128.177 127.79 128.707 127.94 129.287 128.1C130.007 128.3 130.757 128.5 131.537 128.7C132.337 128.88 133.077 129.13 133.757 129.45C134.437 129.77 134.987 130.23 135.407 130.83C135.827 131.41 136.037 132.2 136.037 133.2C136.037 134.16 135.847 134.97 135.467 135.63C135.107 136.29 134.597 136.82 133.937 137.22C133.277 137.62 132.507 137.91 131.627 138.09C130.747 138.27 129.797 138.36 128.777 138.36ZM145.305 138V117.42H157.065C158.145 117.42 159.115 117.63 159.975 118.05C160.855 118.47 161.545 119.06 162.045 119.82C162.545 120.58 162.795 121.47 162.795 122.49C162.795 123.31 162.645 124.04 162.345 124.68C162.045 125.32 161.635 125.85 161.115 126.27C160.615 126.69 160.045 127 159.405 127.2V127.32C160.165 127.48 160.835 127.78 161.415 128.22C162.015 128.66 162.485 129.23 162.825 129.93C163.185 130.61 163.365 131.42 163.365 132.36C163.365 133.6 163.075 134.64 162.495 135.48C161.935 136.32 161.185 136.95 160.245 137.37C159.305 137.79 158.255 138 157.095 138H145.305ZM149.775 134.34H156.225C156.965 134.34 157.565 134.13 158.025 133.71C158.505 133.29 158.745 132.64 158.745 131.76C158.745 131.24 158.645 130.79 158.445 130.41C158.245 130.03 157.945 129.74 157.545 129.54C157.145 129.32 156.635 129.21 156.015 129.21H149.775V134.34ZM149.775 125.73H155.715C156.255 125.73 156.705 125.63 157.065 125.43C157.445 125.21 157.725 124.93 157.905 124.59C158.105 124.23 158.205 123.82 158.205 123.36C158.205 122.58 157.985 121.99 157.545 121.59C157.125 121.19 156.565 120.99 155.865 120.99H149.775V125.73ZM166.596 138V122.22H170.046L170.376 124.68H170.586C170.786 124.16 171.046 123.69 171.366 123.27C171.686 122.83 172.086 122.48 172.566 122.22C173.046 121.96 173.606 121.83 174.246 121.83C174.586 121.83 174.896 121.87 175.176 121.95C175.456 122.01 175.666 122.07 175.806 122.13V125.91H174.516C173.896 125.91 173.346 126 172.866 126.18C172.406 126.34 172.016 126.6 171.696 126.96C171.376 127.32 171.136 127.76 170.976 128.28C170.836 128.8 170.766 129.41 170.766 130.11V138H166.596ZM177.992 119.91V116.31H182.162V119.91H177.992ZM177.992 138V122.22H182.162V138H177.992ZM185.99 138V122.22H189.44L189.77 124.38H189.98C190.34 123.86 190.77 123.41 191.27 123.03C191.79 122.65 192.37 122.36 193.01 122.16C193.65 121.96 194.35 121.86 195.11 121.86C196.15 121.86 197.06 122.05 197.84 122.43C198.62 122.81 199.22 123.41 199.64 124.23C200.08 125.05 200.3 126.12 200.3 127.44V138H196.13V128.1C196.13 127.6 196.07 127.18 195.95 126.84C195.83 126.48 195.65 126.19 195.41 125.97C195.19 125.73 194.91 125.56 194.57 125.46C194.23 125.36 193.85 125.31 193.43 125.31C192.81 125.31 192.25 125.46 191.75 125.76C191.25 126.06 190.86 126.47 190.58 126.99C190.3 127.51 190.16 128.11 190.16 128.79V138H185.99ZM214.267 143.34V136.26H214.087C213.767 136.72 213.377 137.11 212.917 137.43C212.457 137.73 211.937 137.96 211.357 138.12C210.777 138.28 210.147 138.36 209.467 138.36C208.247 138.36 207.167 138.07 206.227 137.49C205.307 136.89 204.577 135.98 204.037 134.76C203.517 133.54 203.257 132 203.257 130.14C203.257 128.22 203.517 126.65 204.037 125.43C204.557 124.21 205.287 123.31 206.227 122.73C207.187 122.15 208.317 121.86 209.617 121.86C210.637 121.86 211.567 122.07 212.407 122.49C213.267 122.89 213.947 123.51 214.447 124.35H214.657L215.017 122.22H218.437V143.34H214.267ZM210.937 134.94C211.537 134.94 212.047 134.84 212.467 134.64C212.887 134.42 213.227 134.11 213.487 133.71C213.767 133.31 213.967 132.83 214.087 132.27C214.227 131.69 214.297 131.05 214.297 130.35V129.84C214.297 128.88 214.177 128.06 213.937 127.38C213.697 126.7 213.327 126.18 212.827 125.82C212.347 125.46 211.717 125.28 210.937 125.28C210.097 125.28 209.427 125.45 208.927 125.79C208.427 126.11 208.067 126.61 207.847 127.29C207.627 127.95 207.517 128.78 207.517 129.78V130.47C207.517 131.45 207.627 132.28 207.847 132.96C208.067 133.62 208.427 134.12 208.927 134.46C209.427 134.78 210.097 134.94 210.937 134.94ZM227.389 138.36C225.789 138.36 224.519 137.92 223.579 137.04C222.639 136.16 222.169 134.74 222.169 132.78V122.22H226.339V132.09C226.339 132.61 226.399 133.05 226.519 133.41C226.639 133.75 226.809 134.03 227.029 134.25C227.269 134.47 227.559 134.63 227.899 134.73C228.239 134.83 228.619 134.88 229.039 134.88C229.659 134.88 230.219 134.73 230.719 134.43C231.219 134.13 231.609 133.72 231.889 133.2C232.169 132.66 232.309 132.06 232.309 131.4V122.22H236.479V138H233.059L232.759 135.84H232.549C232.169 136.34 231.719 136.78 231.199 137.16C230.699 137.54 230.129 137.83 229.489 138.03C228.849 138.25 228.149 138.36 227.389 138.36ZM247.477 138.36C245.737 138.36 244.277 138.07 243.097 137.49C241.917 136.89 241.027 135.98 240.427 134.76C239.827 133.54 239.527 131.99 239.527 130.11C239.527 128.21 239.827 126.66 240.427 125.46C241.027 124.24 241.907 123.34 243.067 122.76C244.247 122.16 245.687 121.86 247.387 121.86C248.987 121.86 250.337 122.15 251.437 122.73C252.537 123.29 253.367 124.17 253.927 125.37C254.487 126.55 254.767 128.08 254.767 129.96V131.04H243.757C243.797 131.96 243.937 132.74 244.177 133.38C244.437 134.02 244.827 134.5 245.347 134.82C245.887 135.12 246.597 135.27 247.477 135.27C247.957 135.27 248.387 135.21 248.767 135.09C249.167 134.97 249.507 134.79 249.787 134.55C250.067 134.31 250.287 134.01 250.447 133.65C250.607 133.29 250.687 132.88 250.687 132.42H254.767C254.767 133.42 254.587 134.29 254.227 135.03C253.867 135.77 253.367 136.39 252.727 136.89C252.087 137.37 251.317 137.74 250.417 138C249.537 138.24 248.557 138.36 247.477 138.36ZM243.817 128.4H250.477C250.477 127.8 250.397 127.28 250.237 126.84C250.097 126.4 249.897 126.04 249.637 125.76C249.377 125.48 249.057 125.28 248.677 125.16C248.317 125.02 247.907 124.95 247.447 124.95C246.687 124.95 246.047 125.08 245.527 125.34C245.027 125.58 244.637 125.96 244.357 126.48C244.097 126.98 243.917 127.62 243.817 128.4ZM263.406 138.36C262.106 138.36 260.976 138.07 260.016 137.49C259.076 136.89 258.346 135.98 257.826 134.76C257.306 133.54 257.046 131.98 257.046 130.08C257.046 128.18 257.306 126.63 257.826 125.43C258.366 124.21 259.096 123.31 260.016 122.73C260.956 122.15 262.036 121.86 263.256 121.86C263.936 121.86 264.566 121.94 265.146 122.1C265.746 122.24 266.266 122.47 266.706 122.79C267.166 123.11 267.556 123.5 267.876 123.96H268.056V116.31H272.226V138H268.806L268.476 135.87H268.266C267.746 136.71 267.066 137.34 266.226 137.76C265.386 138.16 264.446 138.36 263.406 138.36ZM264.726 134.94C265.506 134.94 266.136 134.76 266.616 134.4C267.116 134.04 267.486 133.52 267.726 132.84C267.966 132.16 268.086 131.35 268.086 130.41V129.87C268.086 129.17 268.016 128.53 267.876 127.95C267.756 127.37 267.556 126.89 267.276 126.51C266.996 126.11 266.646 125.81 266.226 125.61C265.806 125.39 265.306 125.28 264.726 125.28C263.886 125.28 263.216 125.45 262.716 125.79C262.216 126.11 261.856 126.61 261.636 127.29C261.416 127.95 261.306 128.78 261.306 129.78V130.47C261.306 131.47 261.416 132.3 261.636 132.96C261.856 133.62 262.216 134.12 262.716 134.46C263.216 134.78 263.886 134.94 264.726 134.94ZM283.338 138.36C281.618 138.36 280.158 138.07 278.958 137.49C277.758 136.89 276.848 135.98 276.228 134.76C275.608 133.52 275.298 131.97 275.298 130.11C275.298 128.21 275.608 126.66 276.228 125.46C276.848 124.24 277.758 123.34 278.958 122.76C280.158 122.16 281.618 121.86 283.338 121.86C285.098 121.86 286.568 122.16 287.748 122.76C288.948 123.34 289.858 124.24 290.478 125.46C291.098 126.66 291.408 128.21 291.408 130.11C291.408 131.97 291.098 133.52 290.478 134.76C289.858 135.98 288.948 136.89 287.748 137.49C286.568 138.07 285.098 138.36 283.338 138.36ZM283.338 135.12C284.258 135.12 284.988 134.95 285.528 134.61C286.088 134.27 286.498 133.75 286.758 133.05C287.018 132.35 287.148 131.49 287.148 130.47V129.75C287.148 128.73 287.018 127.87 286.758 127.17C286.498 126.47 286.088 125.95 285.528 125.61C284.988 125.25 284.258 125.07 283.338 125.07C282.438 125.07 281.708 125.25 281.148 125.61C280.608 125.95 280.208 126.47 279.948 127.17C279.688 127.87 279.558 128.73 279.558 129.75V130.47C279.558 131.49 279.688 132.35 279.948 133.05C280.208 133.75 280.608 134.27 281.148 134.61C281.708 134.95 282.438 135.12 283.338 135.12ZM295.407 126.51V122.22H299.757V126.51H295.407ZM295.407 138V133.71H299.757V138H295.407Z" fill="white"/>
</svg>
